<svg xmlns="http://www.w3.org/2000/svg" viewBox="0 0 600 760"><defs><linearGradient id="g" x2="1" y2="1"><stop stop-color="#222936"/><stop offset="1" stop-color="#071017"/></linearGradient></defs><rect width="600" height="760" fill="url(#g)"/><path d="M300 105c-70 0-116 58-116 145 0 70 45 124 116 124s116-54 116-124c0-87-46-145-116-145Z" fill="#b8d9d0" opacity=".8"/><path d="M90 760c20-212 107-306 210-306s190 94 210 306" fill="#304c69"/><path d="M169 210c24-123 190-156 260-20l-47 22c-45-32-117-29-167 20Z" fill="#0b1823"/><path d="M188 270h224" stroke="#5eecf1" stroke-width="5" opacity=".45"/><g fill="none" stroke="#72edf1" stroke-opacity=".3"><rect x="74" y="62" width="452" height="610"/><path d="M74 510h452M300 62v610"/></g></svg>
