<svg xmlns="http://www.w3.org/2000/svg" viewBox="0 0 1200 720" role="img" aria-label="Biblioteca ilustrada"><defs><linearGradient id="bg" x2="1" y2="1"><stop stop-color="#241a17"/><stop offset=".55" stop-color="#101719"/><stop offset="1" stop-color="#071012"/></linearGradient><linearGradient id="floor" y2="1"><stop stop-color="#34251e"/><stop offset="1" stop-color="#0b1112"/></linearGradient><radialGradient id="lamp"><stop stop-color="#e9c47e" stop-opacity=".75"/><stop offset="1" stop-color="#e9c47e" stop-opacity="0"/></radialGradient></defs><rect width="1200" height="720" fill="url(#bg)"/><path d="M0 490L1200 460V720H0Z" fill="url(#floor)"/><path d="M70 80H390V430H70Z" fill="#0e181a" stroke="#bd9a61" stroke-opacity=".65" stroke-width="5"/><path d="M90 105H370M90 185H370M90 265H370M90 345H370" stroke="#9e794b" stroke-width="6" opacity=".65"/><path d="M113 107V424M172 107V424M231 107V424M290 107V424M349 107V424" stroke="#71543b" stroke-width="4" opacity=".6"/><circle cx="755" cy="220" r="260" fill="url(#lamp)"/><path d="M560 450L930 430 1025 560 445 580Z" fill="#2b1f1a" stroke="#d9ae6e" stroke-opacity=".5" stroke-width="4"/><path d="M535 470L560 665M930 450L900 650M640 465L646 640M820 454L805 636" stroke="#98734a" stroke-width="8"/><path d="M810 120H1040V418H810Z" fill="#0b1416" stroke="#d3b272" stroke-opacity=".6" stroke-width="4"/><path d="M835 150L1015 150M835 215L1015 215M835 280L1015 280M835 345L1015 345" stroke="#a08355" stroke-width="6" opacity=".55"/><path d="M0 475L1200 438" stroke="#8ee5e4" stroke-opacity=".2" stroke-width="3"/><circle cx="590" cy="465" r="5" fill="#8ee5e4"/><circle cx="590" cy="465" r="24" fill="none" stroke="#8ee5e4" stroke-opacity=".45"/></svg>
