<svg xmlns="http://www.w3.org/2000/svg" viewBox="0 0 1200 720" role="img" aria-label="Cozinha ilustrada"><defs><linearGradient id="bg" x2="0" y2="1"><stop stop-color="#293632"/><stop offset=".5" stop-color="#111c1e"/><stop offset="1" stop-color="#0b1012"/></linearGradient><radialGradient id="light"><stop stop-color="#e4b878" stop-opacity=".7"/><stop offset="1" stop-color="#e4b878" stop-opacity="0"/></radialGradient></defs><rect width="1200" height="720" fill="url(#bg)"/><path d="M0 490L1200 470V720H0Z" fill="#25231d"/><path d="M0 90H1200V455H0Z" fill="#182222" stroke="#8ee5e4" stroke-opacity=".2" stroke-width="4"/><path d="M75 155H300V420H75Z" fill="#0a1215" stroke="#c9a66c" stroke-opacity=".6" stroke-width="5"/><path d="M105 183H270V370H105Z" fill="#1e3430"/><circle cx="186" cy="276" r="72" fill="url(#light)"/><path d="M405 110H850V465H405Z" fill="#1d2625" stroke="#b9915b" stroke-opacity=".65" stroke-width="5"/><path d="M445 155H810V242H445ZM445 275H810V362H445" fill="#0a1113" stroke="#8ee5e4" stroke-opacity=".35" stroke-width="3"/><path d="M445 410H810" stroke="#d2aa6b" stroke-opacity=".6" stroke-width="10"/><circle cx="543" cy="200" r="12" fill="#e4b878"/><circle cx="686" cy="200" r="12" fill="#e4b878"/><path d="M914 170H1130V440H914Z" fill="#111a1c" stroke="#b68c58" stroke-opacity=".6" stroke-width="5"/><path d="M950 205H1095M950 270H1095M950 335H1095" stroke="#7d947d" stroke-opacity=".55" stroke-width="4"/><path d="M0 490L1200 455" stroke="#8ee5e4" stroke-opacity=".2" stroke-width="3"/><path d="M110 520L1060 500M250 585L950 570" stroke="#bca476" stroke-opacity=".18" stroke-width="3"/></svg>
