<svg xmlns="http://www.w3.org/2000/svg" viewBox="0 0 1200 720" role="img" aria-label="Escritório ilustrado"><defs><linearGradient id="bg" x2="0" y2="1"><stop stop-color="#162324"/><stop offset=".55" stop-color="#0b1316"/><stop offset="1" stop-color="#090d0f"/></linearGradient><radialGradient id="screen"><stop stop-color="#8ee5e4" stop-opacity=".5"/><stop offset="1" stop-color="#8ee5e4" stop-opacity="0"/></radialGradient></defs><rect width="1200" height="720" fill="url(#bg)"/><path d="M0 485L1200 455V720H0Z" fill="#2c221c"/><path d="M90 90H420V420H90Z" fill="#0c1517" stroke="#d2aa6b" stroke-opacity=".6" stroke-width="5"/><path d="M120 125L390 125M120 195L390 195M120 265L390 265M120 335L390 335" stroke="#74908b" stroke-opacity=".5" stroke-width="5"/><path d="M510 200H965V465H510Z" fill="#171f20" stroke="#be975c" stroke-opacity=".6" stroke-width="5"/><path d="M540 230H935V370H540Z" fill="#0b191b" stroke="#8ee5e4" stroke-opacity=".5" stroke-width="4"/><ellipse cx="735" cy="300" rx="250" ry="170" fill="url(#screen)"/><path d="M700 370H770L800 470H670Z" fill="#2a3533" stroke="#8ee5e4" stroke-opacity=".25" stroke-width="4"/><path d="M510 465H1000" stroke="#d2aa6b" stroke-width="11" opacity=".55"/><path d="M0 486L1200 450" stroke="#8ee5e4" stroke-opacity=".2" stroke-width="3"/><circle cx="740" cy="300" r="7" fill="#e4b878"/><circle cx="740" cy="300" r="36" fill="none" stroke="#e4b878" stroke-opacity=".5"/></svg>
