<svg xmlns="http://www.w3.org/2000/svg" viewBox="0 0 1200 720" role="img" aria-label="Sala de jantar ilustrada"><defs><linearGradient id="bg" x2="1" y2="1"><stop stop-color="#27231f"/><stop offset=".5" stop-color="#11181a"/><stop offset="1" stop-color="#0b1012"/></linearGradient><radialGradient id="chandelier"><stop stop-color="#e4b878" stop-opacity=".6"/><stop offset="1" stop-color="#e4b878" stop-opacity="0"/></radialGradient></defs><rect width="1200" height="720" fill="url(#bg)"/><path d="M0 475L1200 448V720H0Z" fill="#2d221c"/><path d="M110 90H340V405H110Z" fill="#11191b" stroke="#c69e63" stroke-opacity=".6" stroke-width="5"/><path d="M140 125H310V370H140Z" fill="#203433" stroke="#8ee5e4" stroke-opacity=".4" stroke-width="4"/><path d="M890 92H1125V410H890Z" fill="#101719" stroke="#c69e63" stroke-opacity=".6" stroke-width="5"/><path d="M920 128H1095M920 195H1095M920 262H1095M920 329H1095" stroke="#79958a" stroke-opacity=".5" stroke-width="5"/><path d="M600 0V155M520 150Q600 220 680 150" stroke="#d9ad6d" stroke-width="5" fill="none"/><circle cx="600" cy="210" r="190" fill="url(#chandelier)"/><circle cx="520" cy="165" r="10" fill="#e4b878"/><circle cx="680" cy="165" r="10" fill="#e4b878"/><path d="M370 430H850L1040 560H190Z" fill="#493022" stroke="#d5aa6b" stroke-opacity=".6" stroke-width="6"/><path d="M420 458L390 655M800 458L835 655" stroke="#b17f52" stroke-width="13"/><path d="M0 480L1200 445" stroke="#8ee5e4" stroke-opacity=".2" stroke-width="3"/></svg>
